<svg xmlns="http://www.w3.org/2000/svg" xmlns:xlink="http://www.w3.org/1999/xlink" viewBox="0 0 282.26 219.92"><defs><style>.cls-1{fill:url(#linear-gradient);}.cls-2{fill:url(#linear-gradient-2);}.cls-3{fill:url(#linear-gradient-3);}.cls-4{fill:url(#linear-gradient-4);}.cls-5{fill:url(#linear-gradient-5);}.cls-6{fill:#fff;}.cls-7{fill:url(#linear-gradient-6);}.cls-8{fill:url(#linear-gradient-7);}.cls-9{fill:url(#linear-gradient-8);}.cls-10{fill:url(#linear-gradient-9);}.cls-11{fill:url(#linear-gradient-10);}.cls-12{fill:url(#linear-gradient-11);}.cls-13{fill:url(#linear-gradient-12);}.cls-14{fill:url(#linear-gradient-13);}.cls-15{fill:url(#linear-gradient-14);}.cls-16{fill:url(#linear-gradient-15);}.cls-17{fill:url(#linear-gradient-16);}.cls-18{fill:url(#linear-gradient-17);}.cls-19{opacity:0.17;fill:url(#linear-gradient-18);}.cls-20{fill:url(#linear-gradient-19);}.cls-21{fill:url(#linear-gradient-20);}.cls-22{fill:url(#linear-gradient-21);}.cls-23{fill:url(#linear-gradient-22);}.cls-24{fill:url(#linear-gradient-23);}.cls-25{fill:url(#linear-gradient-24);}.cls-26{fill:url(#linear-gradient-25);}.cls-27{fill:url(#linear-gradient-26);}.cls-28{fill:url(#linear-gradient-27);}.cls-29{fill:url(#linear-gradient-28);}.cls-30{fill:url(#linear-gradient-29);}.cls-31{fill:url(#linear-gradient-30);}.cls-32{fill:url(#linear-gradient-31);}.cls-33{fill:url(#linear-gradient-32);}.cls-34{fill:url(#linear-gradient-33);}.cls-35{fill:url(#linear-gradient-34);}.cls-36{fill:#1c1c55;}.cls-37{fill:url(#linear-gradient-35);}.cls-38{fill:url(#linear-gradient-36);}</style><linearGradient id="linear-gradient" x1="152.74" y1="164.68" x2="151.98" y2="192.45" gradientUnits="userSpaceOnUse"><stop offset="0" stop-color="#b0b0b0"/><stop offset="1" stop-color="#fff"/></linearGradient><linearGradient id="linear-gradient-2" x1="130.98" y1="166.05" x2="173.98" y2="238.71" xlink:href="#linear-gradient"/><linearGradient id="linear-gradient-3" x1="141.05" y1="265.8" x2="159.12" y2="-36.86" xlink:href="#linear-gradient"/><linearGradient id="linear-gradient-4" x1="153.54" y1="115.19" x2="149.03" y2="167.04" gradientUnits="userSpaceOnUse"><stop offset="0" stop-color="#db9661"/><stop offset="0.13" stop-color="#d78f5f"/><stop offset="1" stop-color="#be6554"/></linearGradient><linearGradient id="linear-gradient-5" x1="54.94" y1="63.7" x2="258.95" y2="63.7" gradientUnits="userSpaceOnUse"><stop offset="0" stop-color="#fff"/><stop offset="1" stop-color="#faf9fb" stop-opacity="0"/></linearGradient><linearGradient id="linear-gradient-6" x1="81.95" y1="12.15" x2="221.73" y2="12.15" gradientUnits="userSpaceOnUse"><stop offset="0" stop-color="#34346d"/><stop offset="1" stop-color="#603d8e"/></linearGradient><linearGradient id="linear-gradient-7" x1="186.79" y1="12.91" x2="197.42" y2="12.91" xlink:href="#linear-gradient"/><linearGradient id="linear-gradient-8" x1="200.46" y1="12.91" x2="211.09" y2="12.91" xlink:href="#linear-gradient-4"/><linearGradient id="linear-gradient-9" x1="164.04" y1="116.4" x2="186.84" y2="66.35" gradientUnits="userSpaceOnUse"><stop offset="0" stop-color="#f6df80"/><stop offset="1" stop-color="#eab855"/></linearGradient><linearGradient id="linear-gradient-10" x1="164.04" y1="96.65" x2="186.84" y2="46.6" xlink:href="#linear-gradient-9"/><linearGradient id="linear-gradient-11" x1="153.05" y1="95.15" x2="158.48" y2="83.22" xlink:href="#linear-gradient-6"/><linearGradient id="linear-gradient-12" x1="163.31" y1="95.15" x2="168.74" y2="83.22" xlink:href="#linear-gradient-6"/><linearGradient id="linear-gradient-13" x1="173.56" y1="95.15" x2="178.99" y2="83.22" xlink:href="#linear-gradient-6"/><linearGradient id="linear-gradient-14" x1="183.82" y1="95.15" x2="189.25" y2="83.22" xlink:href="#linear-gradient-6"/><linearGradient id="linear-gradient-15" x1="194.07" y1="95.15" x2="199.5" y2="83.22" xlink:href="#linear-gradient-6"/><linearGradient id="linear-gradient-16" x1="119.03" y1="39.88" x2="118.27" y2="76.98" gradientUnits="userSpaceOnUse"><stop offset="0.08" stop-color="#b0b0b0"/><stop offset="0.43" stop-color="#fff"/><stop offset="0.75" stop-color="#b0b0b0"/><stop offset="1" stop-color="#fff"/></linearGradient><linearGradient id="linear-gradient-17" x1="118.67" y1="55.44" x2="118.67" y2="123.44" gradientUnits="userSpaceOnUse"><stop offset="0" stop-color="#a03e6c"/><stop offset="1" stop-color="#5b40a0"/></linearGradient><linearGradient id="linear-gradient-18" x1="129.49" y1="74.29" x2="116.71" y2="91.86" xlink:href="#linear-gradient-5"/><linearGradient id="linear-gradient-19" x1="118.67" y1="73.23" x2="118.67" y2="104.61" xlink:href="#linear-gradient-16"/><linearGradient id="linear-gradient-20" x1="3010.05" y1="-1807.75" x2="3020.13" y2="-1795.34" gradientTransform="matrix(0.52, -0.86, 0.86, 0.52, 208.31, 3639.78)" gradientUnits="userSpaceOnUse"><stop offset="0" stop-color="#dd9373"/><stop offset="1" stop-color="#f2d0bd"/></linearGradient><linearGradient id="linear-gradient-21" x1="221.65" y1="109.92" x2="262.7" y2="109.92" xlink:href="#linear-gradient-17"/><linearGradient id="linear-gradient-22" x1="1309.03" y1="-1266.04" x2="1338.74" y2="-1215.84" gradientTransform="translate(-271.12 1857.32) rotate(-31.01)" gradientUnits="userSpaceOnUse"><stop offset="0.01" stop-color="#eab855"/><stop offset="0.29" stop-color="#f6df80"/><stop offset="0.53" stop-color="#eab855"/><stop offset="0.89" stop-color="#f6df80"/></linearGradient><linearGradient id="linear-gradient-23" x1="6254.07" y1="615.44" x2="6267.31" y2="618.94" gradientTransform="matrix(-1.05, -0.14, -0.13, 0.99, 6913.27, 454.44)" gradientUnits="userSpaceOnUse"><stop offset="0" stop-color="#35327a"/><stop offset="1" stop-color="#5f679f"/></linearGradient><linearGradient id="linear-gradient-24" x1="6458.24" y1="216.23" x2="6471.49" y2="219.73" gradientTransform="matrix(-1, 0, 0, 1, 6732.18, 0)" xlink:href="#linear-gradient-23"/><linearGradient id="linear-gradient-25" x1="260.92" y1="176.15" x2="281" y2="176.15" xlink:href="#linear-gradient-6"/><linearGradient id="linear-gradient-26" x1="-6.79" y1="866.14" x2="13.29" y2="866.14" gradientTransform="matrix(0.98, 0.21, -0.21, 0.98, 429.7, -670.87)" xlink:href="#linear-gradient-6"/><linearGradient id="linear-gradient-27" x1="263.25" y1="121.12" x2="264.8" y2="180.76" xlink:href="#linear-gradient-17"/><linearGradient id="linear-gradient-28" x1="219.79" y1="104.11" x2="229.87" y2="116.51" gradientTransform="matrix(1, 0, 0, 1, 0, 0)" xlink:href="#linear-gradient-20"/><linearGradient id="linear-gradient-29" x1="238.33" y1="129.39" x2="293.18" y2="53.16" xlink:href="#linear-gradient-17"/><linearGradient id="linear-gradient-30" x1="262.71" y1="79.81" x2="259.97" y2="95.01" gradientTransform="matrix(1, 0, 0, 1, 0, 0)" xlink:href="#linear-gradient-20"/><linearGradient id="linear-gradient-31" x1="265.86" y1="71.91" x2="279.4" y2="55.34" gradientTransform="matrix(1, 0, 0, 1, 0, 0)" xlink:href="#linear-gradient-23"/><linearGradient id="linear-gradient-32" x1="622.52" y1="228.6" x2="638.21" y2="225.6" gradientTransform="matrix(1, 0.06, -0.06, 1, -336.26, -195.81)" xlink:href="#linear-gradient-20"/><linearGradient id="linear-gradient-33" x1="612.44" y1="219.01" x2="612.12" y2="247.13" gradientTransform="matrix(1, 0.06, -0.06, 1, -336.26, -195.81)" xlink:href="#linear-gradient-20"/><linearGradient id="linear-gradient-34" x1="220.18" y1="134.82" x2="242.41" y2="126.6" gradientTransform="matrix(1, 0.02, -0.02, 1, 37.78, -79.94)" xlink:href="#linear-gradient-23"/><linearGradient id="linear-gradient-35" x1="637.48" y1="-846.9" x2="723.7" y2="-846.9" gradientTransform="matrix(0.94, -0.35, 0.35, 0.94, -291.62, 1201.45)" xlink:href="#linear-gradient-17"/><linearGradient id="linear-gradient-36" x1="419.77" y1="-573.92" x2="498.52" y2="-573.92" gradientTransform="matrix(0.97, -0.26, 0.26, 0.97, -257.11, 866.3)" xlink:href="#linear-gradient-6"/></defs><title>Asset 1</title><g id="Layer_2" data-name="Layer 2"><g id="OBJECTS"><polygon class="cls-1" points="192.1 197.51 111.58 197.51 117.66 126.1 186.03 126.1 192.1 197.51"/><path class="cls-2" d="M196.49,208.14h-89.3a6.84,6.84,0,0,1-6.68-8.32h0a6.85,6.85,0,0,1,6.68-5.35h89.3a6.85,6.85,0,0,1,6.68,5.35h0A6.84,6.84,0,0,1,196.49,208.14Z"/><path class="cls-3" d="M259,24.35V145.81a12.21,12.21,0,0,1-12.2,12.2H56.93a12.21,12.21,0,0,1-12.2-12.2V24.35a12.22,12.22,0,0,1,10.21-12,13,13,0,0,1,2-.17H246.75A12.21,12.21,0,0,1,259,24.35Z"/><path class="cls-4" d="M259,123.06v22.75a12.21,12.21,0,0,1-12.2,12.2H56.93a12.21,12.21,0,0,1-12.2-12.2V123.06Z"/><path class="cls-5" d="M259,24.35v90.9c-43.39-20.67-153-76.74-204-102.93a13,13,0,0,1,2-.17H246.75A12.21,12.21,0,0,1,259,24.35Z"/><rect class="cls-6" x="81.95" y="24.31" width="139.78" height="98.75"/><path class="cls-7" d="M221.73,10.29v14H82v-14A10.29,10.29,0,0,1,92.24,0h119.2A10.28,10.28,0,0,1,221.73,10.29Z"/><path class="cls-8" d="M197.42,12.91A5.32,5.32,0,1,1,192.1,7.6,5.32,5.32,0,0,1,197.42,12.91Z"/><path class="cls-9" d="M211.09,12.91a5.32,5.32,0,1,1-5.31-5.31A5.32,5.32,0,0,1,211.09,12.91Z"/><rect class="cls-10" x="146.96" y="80.52" width="59.57" height="15.95" rx="5.25"/><rect class="cls-11" x="146.96" y="60.77" width="59.57" height="15.95" rx="5.25"/><polygon class="cls-12" points="160.28 87.55 158.37 87.55 159.72 86.2 158.38 84.86 157.03 86.21 157.03 84.3 155.13 84.3 155.13 86.21 153.78 84.86 152.44 86.2 153.79 87.55 151.88 87.55 151.88 89.45 153.79 89.45 152.44 90.8 153.78 92.14 155.13 90.79 155.13 92.7 157.03 92.7 157.03 90.79 158.38 92.14 159.72 90.8 158.37 89.45 160.28 89.45 160.28 87.55"/><polygon class="cls-13" points="170.53 87.55 168.62 87.55 169.97 86.2 168.63 84.86 167.28 86.21 167.28 84.3 165.39 84.3 165.39 86.21 164.04 84.86 162.7 86.2 164.05 87.55 162.14 87.55 162.14 89.45 164.05 89.45 162.7 90.8 164.04 92.14 165.39 90.79 165.39 92.7 167.28 92.7 167.28 90.79 168.63 92.14 169.97 90.8 168.62 89.45 170.53 89.45 170.53 87.55"/><polygon class="cls-14" points="180.79 87.55 178.88 87.55 180.23 86.2 178.89 84.86 177.54 86.21 177.54 84.3 175.64 84.3 175.64 86.21 174.29 84.86 172.95 86.2 174.3 87.55 172.39 87.55 172.39 89.45 174.3 89.45 172.95 90.8 174.29 92.14 175.64 90.79 175.64 92.7 177.54 92.7 177.54 90.79 178.89 92.14 180.23 90.8 178.88 89.45 180.79 89.45 180.79 87.55"/><polygon class="cls-15" points="191.04 87.55 189.13 87.55 190.48 86.2 189.14 84.86 187.79 86.21 187.79 84.3 185.9 84.3 185.9 86.21 184.55 84.86 183.21 86.2 184.56 87.55 182.65 87.55 182.65 89.45 184.56 89.45 183.21 90.8 184.55 92.14 185.9 90.79 185.9 92.7 187.79 92.7 187.79 90.79 189.14 92.14 190.48 90.8 189.13 89.45 191.04 89.45 191.04 87.55"/><polygon class="cls-16" points="201.3 87.55 199.39 87.55 200.74 86.2 199.4 84.86 198.05 86.21 198.05 84.3 196.15 84.3 196.15 86.21 194.8 84.86 193.46 86.2 194.81 87.55 192.9 87.55 192.9 89.45 194.81 89.45 193.46 90.8 194.8 92.14 196.15 90.79 196.15 92.7 198.05 92.7 198.05 90.79 199.4 92.14 200.74 90.8 199.39 89.45 201.3 89.45 201.3 87.55"/><path class="cls-17" d="M138.09,56.61v1.81a2.47,2.47,0,0,1,0,.39,3.1,3.1,0,0,1-5.27,1.81,3.12,3.12,0,0,1-.91-2.2V57.13a2.23,2.23,0,0,0,0-.37c-.16-6.91-5.41-12.91-12.33-13.34a13.23,13.23,0,0,0-14.07,13.19v17a.06.06,0,0,1-.06.06H99.3a.06.06,0,0,1-.06-.06V57.22c0-10.47,8-19.53,18.51-20A19.43,19.43,0,0,1,138.09,56.61Z"/><path class="cls-18" d="M141.21,71V105.9a2.79,2.79,0,0,1-2.78,2.78H98.91a2.78,2.78,0,0,1-2.78-2.78V71a2.77,2.77,0,0,1,2.35-2.73,2,2,0,0,1,.43,0h39.52A2.79,2.79,0,0,1,141.21,71Z"/><path class="cls-19" d="M141.21,71V105.9a2.79,2.79,0,0,1-2.78,2.78h-3.16C134.93,84.32,109,72.23,98.48,68.31a2,2,0,0,1,.43,0h39.52A2.79,2.79,0,0,1,141.21,71Z"/><path class="cls-20" d="M124.89,85.36a6.22,6.22,0,1,0-8.55,5.76v4.34a2.33,2.33,0,0,0,4.66,0V91.12A6.22,6.22,0,0,0,124.89,85.36Z"/><path class="cls-21" d="M217.05,124.16c-.8.15-1.51.44-1.19,1.1a1,1,0,0,0,.59.41,5.85,5.85,0,0,0,2.16.28c-.13,0-.5.39-.64.47s-.52.27-.79.4a3.87,3.87,0,0,0-1.39,1.08c-.91,1.22-.2,2.47.78,3.34a3,3,0,0,0,1.37.8c1,.2,1.93-.44,2.81-.79a21.85,21.85,0,0,0,4.35-2.31,7.52,7.52,0,0,0,2-1.83.85.85,0,0,0,.17-.39.84.84,0,0,0-.08-.41,10.05,10.05,0,0,0-2.64-3.88.53.53,0,0,0-.73-.1,13.94,13.94,0,0,1-3.07,1.22c-.71.12-1.41.29-2.11.42C218.37,124,217.68,124.05,217.05,124.16Z"/><path class="cls-22" d="M242.63,107.48a25.18,25.18,0,0,1-3.12,3.55,24.83,24.83,0,0,1-3.71,2.54L221.65,122A45.11,45.11,0,0,0,224,129.8l9.85-5.44c4.94-2.73,10-5.51,13.95-9.51a60.46,60.46,0,0,0,4.13-4.78L260.82,99a7.15,7.15,0,0,0,1.86-3.48c.26-2.28-1.9-4.59-4-5.26-2.5-.81-3.43.82-4.87,2.66C250.07,97.74,246.36,102.63,242.63,107.48Z"/><path class="cls-23" d="M245.09,90.46l-.45-.16a10.24,10.24,0,1,0-17.3-10.51,9.73,9.73,0,0,0-.74,3l-.44-.2a10.25,10.25,0,1,0-.08,19L215.55,127,208,123.89a4.09,4.09,0,0,0-5.35,2.22h0a4.09,4.09,0,0,0,2.22,5.35l7.57,3.14-1.18,2.84-8.85-3.67a2.67,2.67,0,0,0-3.37,1.09,2.57,2.57,0,0,0,1.27,3.59l9,3.72-1.53,3.68a3.15,3.15,0,0,0,1.08,3.83,3.08,3.08,0,0,0,4.56-1.37l18.36-44.38a10.24,10.24,0,1,0,13.33-13.47Zm-7.3-12.83a6.16,6.16,0,1,1-6,2.48A6.09,6.09,0,0,1,237.79,77.63ZM221.25,98.17a6.17,6.17,0,0,1-4-9.67,6.15,6.15,0,1,1,4,9.67ZM240.19,106a6.16,6.16,0,1,1,6-2.48A6.09,6.09,0,0,1,240.19,106Z"/><path class="cls-24" d="M239.44,215.34c-.89.34-1.89.83-2.07,1.72a1.91,1.91,0,0,0,1.14,1.89,5.32,5.32,0,0,0,2.38.44,53.53,53.53,0,0,0,8.75-.81,4.08,4.08,0,0,0,1.3-.33,2.49,2.49,0,0,0,1.21-2.05,7,7,0,0,0-.39-2.42,1.23,1.23,0,0,0-.37-.7c-1.27-1-4.4-.45-5.86,0C243.46,213.65,241.44,214.56,239.44,215.34Z"/><path class="cls-25" d="M269.45,216c-.79.45-1.67,1.06-1.72,2a1.88,1.88,0,0,0,1.28,1.73,4.83,4.83,0,0,0,2.27.13,46.78,46.78,0,0,0,8.08-1.92,3.7,3.7,0,0,0,1.17-.5,2.52,2.52,0,0,0,.89-2.18,7.31,7.31,0,0,0-.66-2.35,1.23,1.23,0,0,0-.43-.65c-1.31-.83-4.16.12-5.47.72C273,213.83,271.22,215,269.45,216Z"/><path class="cls-26" d="M261.39,138.45s-4.2,44.82,12.61,75.64l7-1.4s-6.54-43.89-.47-74.48Z"/><path class="cls-27" d="M248.56,137.51s-13.58,42.93-3.66,76.6l7.14.11s2.89-44.28,15.28-72.9Z"/><path class="cls-28" d="M281.42,147.54s-9.3,5.12-35.88,0c-.4-.08-.44-7.16-.47-7.64-.24-6-.25-11.92,0-17.86a99.79,99.79,0,0,1,2.66-20c1.27-4.93,3.17-10.64,7.45-14a10.23,10.23,0,0,1,2-1.23,11.77,11.77,0,0,1,2.88-.91,15.82,15.82,0,0,1,6.49.28,16.77,16.77,0,0,1,5.85,2.69c7.07,5.24,7.23,14.89,8.08,22.66C281.85,123.46,283.18,135.66,281.42,147.54Z"/><path class="cls-29" d="M226.27,106.43c-.54-.6-1.15-1.07-1.55-.45a1,1,0,0,0-.05.72,5.81,5.81,0,0,0,.87,2c-.07-.1-.6-.22-.74-.3s-.49-.31-.74-.47a3.78,3.78,0,0,0-1.65-.63c-1.5-.15-2.21,1.1-2.46,2.39a2.92,2.92,0,0,0,0,1.58c.34.95,1.37,1.43,2.12,2a21.83,21.83,0,0,0,4.23,2.53,7.35,7.35,0,0,0,2.59.75.86.86,0,0,0,.42,0,1,1,0,0,0,.31-.28,10.25,10.25,0,0,0,2-4.26.67.67,0,0,0,0-.37.69.69,0,0,0-.3-.31,13.6,13.6,0,0,1-2.62-2c-.48-.54-1-1-1.46-1.59C227.07,107.49,226.69,106.92,226.27,106.43Z"/><path class="cls-30" d="M265.55,94.75q-4.37,11.15-8.74,22.29L229,109.86a49.46,49.46,0,0,0-2.34,6.89,119,119,0,0,0,35.88,9.49,1.69,1.69,0,0,0,2.18-1.23,183.07,183.07,0,0,0,8.65-24.81c.76-2.82,1.68-6.55-.9-8.62C269.16,88.94,266.77,91.64,265.55,94.75Z"/><path class="cls-31" d="M264.23,85.85V77.64H258v9c-.26.1-.51.18-.76.29-.37,1.59.12,3.73,1.06,4.51a3.15,3.15,0,0,0,3.1.35,7.47,7.47,0,0,0,2.58-2,22.56,22.56,0,0,0,2.63-3.52A16.24,16.24,0,0,0,264.23,85.85Z"/><path class="cls-32" d="M275.82,55.78a12.81,12.81,0,0,1,3,8.26,20.1,20.1,0,0,1-4.78,13.76c-1.93,2.24-4.55,4.12-7.51,4.24a1.8,1.8,0,0,1-1.38-.37,2,2,0,0,1-.45-1.21,61.48,61.48,0,0,1-.36-9.6c.06-2.34.15-4.69.29-7,.18-3.19.45-7.36,2.8-9.83C269.63,51.75,274.12,54,275.82,55.78Z"/><path class="cls-33" d="M274.22,69.91a4.42,4.42,0,0,1-.68,5.62,5.07,5.07,0,0,1-5.77.55.78.78,0,0,1-.35-.32.88.88,0,0,1-.08-.39c0-1.74-.52-5.29,1.08-6.49S273.11,68.36,274.22,69.91Z"/><path class="cls-34" d="M258.62,55.06a9.78,9.78,0,0,0-7.35,4.72,16.3,16.3,0,0,0-1.8,6.57c-.5,4.39-.55,9,1.24,13a9.08,9.08,0,0,0,2.5,3.48,9.47,9.47,0,0,0,5.94,1.76c6.83,0,10.29-5.16,11.47-11.4.75-4,1.35-9.71-.05-13.61C268.9,55,262.82,54.45,258.62,55.06Z"/><path class="cls-35" d="M265.1,64.63a7.08,7.08,0,0,1-3.85.44c-.86-.19-1.77-.79-1.82-1.68a7.75,7.75,0,0,1-3.61,1.92c-1.37.19-3-.63-3.13-2a5.16,5.16,0,0,1-5.89,1c-3-1.53-3.75-6-1-8.13,1.21-.92,2.75-1.13,4.16-1.58,1.6-.51,2.81-1.6,4.32-2.28a24.8,24.8,0,0,1,5.36-1.78,15.39,15.39,0,0,1,9.08.72,7.63,7.63,0,0,1,3.89,3.24C275.09,59,268.72,63.33,265.1,64.63Z"/><path class="cls-36" d="M253.33,69.58a.86.86,0,0,0-.11,1.72A.86.86,0,0,0,253.33,69.58Z"/><path class="cls-36" d="M262,70.13a.87.87,0,0,0-.12,1.74A.87.87,0,0,0,262,70.13Z"/><path class="cls-36" d="M259.58,77.12a3.7,3.7,0,0,1-2.13.4,6.18,6.18,0,0,1-1.69-.61c-.14,0-.34,0-.28.15.66,1.23,3.27,1.12,4.47.39C260.2,77.29,259.86,77,259.58,77.12Z"/><path class="cls-36" d="M258.4,75a6.58,6.58,0,0,1-1.47-.11c.29-1.39.54-2.79.8-4.19a.13.13,0,0,0-.26-.07c-.36,1.47-.74,2.92-1.07,4.4a.25.25,0,0,0,.17.31,7,7,0,0,0,1.83.18A.26.26,0,0,0,258.4,75Z"/><path class="cls-36" d="M254,67.65a24.06,24.06,0,0,0-2.55,0,.44.44,0,0,0,0,.88,24.06,24.06,0,0,0,2.55,0A.49.49,0,0,0,254,67.65Z"/><path class="cls-36" d="M263.66,67.65a24.06,24.06,0,0,0-2.55,0,.44.44,0,0,0,0,.88,24.06,24.06,0,0,0,2.55,0A.49.49,0,0,0,263.66,67.65Z"/><path class="cls-37" d="M5,173.72c-.79-2.55-1.42-5.29-.73-7.87s3.12-4.87,5.77-4.52a7.91,7.91,0,0,1,3.88,2.09,57.15,57.15,0,0,1,16,21.45c-5.77-13.77-11.64-28-11.78-42.88,0-1.74.14-3.69,1.43-4.84,1.5-1.33,3.95-1,5.51.29a12.41,12.41,0,0,1,3.22,5A197.59,197.59,0,0,1,38,170.61a56.23,56.23,0,0,1,15.42-35.89c2.13-2.22,5.29-4.41,8-3s2.86,5,2.52,8A89.32,89.32,0,0,1,54.1,171.6c10-7.44,21-15.23,33.44-14.95a4.34,4.34,0,0,1,3.17,1c1.3,1.4.45,3.66-.54,5.29a59,59,0,0,1-29.05,24.37,53.07,53.07,0,0,1,27.11-3.69c2.44.31,5.29,1.16,6,3.52s-1,4.42-2.7,6c-14,13.61-34.91,19.33-54.13,17.08C20.85,208.34,9.35,187.91,5,173.72Z"/><path class="cls-38" d="M1.87,205.18A4.28,4.28,0,0,1,0,202.3c-.07-2.45,3.37-3.12,5.8-2.79a55.56,55.56,0,0,1,21.68,7.84C21.53,199.82,15.42,192,13.06,182.7c-.34-1.34-.52-3,.5-3.91,1.48-1.37,3.82,0,5.28,1.38a108.84,108.84,0,0,1,18,22,45.15,45.15,0,0,1,2.11-31.58c.9-2,2.36-4.15,4.53-4.17,2.9,0,4.19,3.64,4.42,6.53.67,8.41-.52,16.85-1.7,25.21a28.75,28.75,0,0,1,14.49-14.86,11.12,11.12,0,0,1,6-1.22,5.1,5.1,0,0,1,4.44,3.7c.44,2.21-1.06,4.31-2.54,6a76.38,76.38,0,0,1-11.71,10.88,43.21,43.21,0,0,1,19.5-4.72c1.45,0,3.07.14,4,1.23a3.68,3.68,0,0,1-.26,4.53c-5.63,7-17.7,8.58-25.95,10.46C35.75,218.35,16.87,217.9,1.87,205.18Z"/></g></g></svg>