<svg xmlns="http://www.w3.org/2000/svg" xmlns:xlink="http://www.w3.org/1999/xlink" viewBox="0 0 356.57 380.74"><defs><style>.cls-1{isolation:isolate;}.cls-2{fill:#f5d9fc;opacity:0.53;}.cls-3{mix-blend-mode:multiply;fill:url(#linear-gradient);}.cls-4{fill:#865f9e;}.cls-5{fill:#d797f2;}.cls-6{fill:#e6c0f2;}.cls-7{fill:#d5a0e8;}.cls-8{fill:url(#linear-gradient-2);}.cls-9{fill:url(#linear-gradient-3);}.cls-10{fill:url(#linear-gradient-4);}.cls-11{fill:url(#linear-gradient-5);}.cls-12{fill:url(#linear-gradient-6);}.cls-13{fill:#913c4c;}.cls-14{fill:url(#linear-gradient-7);}.cls-15{fill:url(#linear-gradient-8);}.cls-16{fill:#583793;}.cls-17{fill:url(#linear-gradient-9);}.cls-18{fill:url(#linear-gradient-10);}.cls-19{fill:url(#linear-gradient-11);}.cls-20{fill:url(#linear-gradient-12);}.cls-21{fill:url(#linear-gradient-13);}.cls-22{fill:url(#linear-gradient-14);}.cls-23{fill:url(#linear-gradient-15);}.cls-24{fill:url(#linear-gradient-16);}.cls-25{fill:url(#linear-gradient-17);}.cls-26{fill:#8b5ed0;}.cls-27{fill:#e2e2ed;stroke:#ed1b43;stroke-miterlimit:10;stroke-width:0.54px;}.cls-28{fill:url(#linear-gradient-18);}.cls-29{fill:url(#linear-gradient-19);}.cls-30{fill:url(#linear-gradient-20);}.cls-31{fill:url(#linear-gradient-21);}.cls-32{fill:url(#linear-gradient-22);}.cls-33{fill:url(#linear-gradient-23);}.cls-34{fill:url(#linear-gradient-24);}.cls-35{fill:url(#linear-gradient-25);}.cls-36{fill:url(#linear-gradient-26);}.cls-37{fill:url(#linear-gradient-27);}.cls-38{fill:url(#linear-gradient-28);}.cls-39{fill:#6f3cc7;}.cls-40{fill:url(#linear-gradient-29);}.cls-41{fill:url(#linear-gradient-30);}.cls-42{fill:url(#linear-gradient-31);}.cls-43{fill:url(#linear-gradient-32);}.cls-44{fill:url(#linear-gradient-33);}.cls-45{fill:url(#linear-gradient-34);}.cls-46{fill:url(#linear-gradient-35);}.cls-47{fill:url(#linear-gradient-36);}</style><linearGradient id="linear-gradient" x1="172.4" y1="287.14" x2="165" y2="386.45" gradientUnits="userSpaceOnUse"><stop offset="0" stop-color="#d9b5ea" stop-opacity="0.8"/><stop offset="1" stop-color="#d9b5ea" stop-opacity="0.1"/></linearGradient><linearGradient id="linear-gradient-2" x1="171" y1="211.28" x2="168.89" y2="200.17" gradientUnits="userSpaceOnUse"><stop offset="0" stop-color="#faaba8"/><stop offset="1" stop-color="#fee3d1"/></linearGradient><linearGradient id="linear-gradient-3" x1="230.33" y1="313.36" x2="246.79" y2="313.36" gradientUnits="userSpaceOnUse"><stop offset="0" stop-color="#953ddb"/><stop offset="1" stop-color="#6029c1"/></linearGradient><linearGradient id="linear-gradient-4" x1="205.27" y1="312.27" x2="225.71" y2="312.27" xlink:href="#linear-gradient-3"/><linearGradient id="linear-gradient-5" x1="209.65" y1="261.6" x2="237.81" y2="261.6" gradientUnits="userSpaceOnUse"><stop offset="0" stop-color="#8859a4"/><stop offset="1" stop-color="#45298d"/></linearGradient><linearGradient id="linear-gradient-6" x1="228.93" y1="259.07" x2="251.15" y2="259.07" xlink:href="#linear-gradient-5"/><linearGradient id="linear-gradient-7" x1="249.1" y1="226.91" x2="257.79" y2="226.91" xlink:href="#linear-gradient-2"/><linearGradient id="linear-gradient-8" x1="245.73" y1="231.22" x2="204.45" y2="173.1" gradientUnits="userSpaceOnUse"><stop offset="0" stop-color="#6029c1"/><stop offset="1" stop-color="#a983db"/></linearGradient><linearGradient id="linear-gradient-9" x1="211.8" y1="139.92" x2="234.31" y2="139.92" gradientUnits="userSpaceOnUse"><stop offset="0" stop-color="#ae567c"/><stop offset="1" stop-color="#815665"/></linearGradient><linearGradient id="linear-gradient-10" x1="226.08" y1="152.58" x2="224.84" y2="168.73" xlink:href="#linear-gradient-2"/><linearGradient id="linear-gradient-11" x1="231.33" y1="164.4" x2="223.87" y2="146.72" xlink:href="#linear-gradient-2"/><linearGradient id="linear-gradient-12" x1="224.85" y1="161.3" x2="234.85" y2="161.3" gradientUnits="userSpaceOnUse"><stop offset="0" stop-color="#f1dcff"/><stop offset="1" stop-color="#e7dbff"/></linearGradient><linearGradient id="linear-gradient-13" x1="219" y1="163.16" x2="223" y2="163.16" xlink:href="#linear-gradient-12"/><linearGradient id="linear-gradient-14" x1="265.91" y1="190.39" x2="245.1" y2="192.91" xlink:href="#linear-gradient-8"/><linearGradient id="linear-gradient-15" x1="250.4" y1="220.44" x2="258.4" y2="220.44" xlink:href="#linear-gradient-12"/><linearGradient id="linear-gradient-16" x1="173.74" y1="203.93" x2="179.33" y2="203.93" xlink:href="#linear-gradient-12"/><linearGradient id="linear-gradient-17" x1="253.87" y1="270.81" x2="253.6" y2="227.9" gradientUnits="userSpaceOnUse"><stop offset="0" stop-color="#a24051"/><stop offset="1" stop-color="#cc5663"/></linearGradient><linearGradient id="linear-gradient-18" x1="112.29" y1="314.68" x2="133.38" y2="314.68" xlink:href="#linear-gradient-17"/><linearGradient id="linear-gradient-19" x1="132.93" y1="310.74" x2="156.44" y2="310.74" xlink:href="#linear-gradient-17"/><linearGradient id="linear-gradient-20" x1="126.36" y1="260.5" x2="148.28" y2="260.5" gradientUnits="userSpaceOnUse"><stop offset="0" stop-color="#45298d"/><stop offset="1" stop-color="#8859a4"/></linearGradient><linearGradient id="linear-gradient-21" x1="105.94" y1="260.94" x2="128.95" y2="260.94" xlink:href="#linear-gradient-20"/><linearGradient id="linear-gradient-22" x1="153.53" y1="213.65" x2="164.4" y2="204.69" xlink:href="#linear-gradient-2"/><linearGradient id="linear-gradient-23" x1="179.08" y1="172.1" x2="165.25" y2="150.71" xlink:href="#linear-gradient-2"/><linearGradient id="linear-gradient-24" x1="126.49" y1="175.6" x2="167.46" y2="175.6" gradientUnits="userSpaceOnUse"><stop offset="0" stop-color="#d1b3f9"/><stop offset="1" stop-color="#f2edf9"/></linearGradient><linearGradient id="linear-gradient-25" x1="102.03" y1="197.37" x2="133.25" y2="185.6" xlink:href="#linear-gradient-8"/><linearGradient id="linear-gradient-26" x1="109.65" y1="142.25" x2="135.62" y2="142.25" gradientUnits="userSpaceOnUse"><stop offset="0" stop-color="#45298d"/><stop offset="1" stop-color="#604aa4"/></linearGradient><linearGradient id="linear-gradient-27" x1="118.99" y1="155.02" x2="119.48" y2="168.37" xlink:href="#linear-gradient-2"/><linearGradient id="linear-gradient-28" x1="114.27" y1="165.03" x2="123.51" y2="145.21" xlink:href="#linear-gradient-2"/><linearGradient id="linear-gradient-29" x1="121.47" y1="206.99" x2="131.25" y2="192.33" xlink:href="#linear-gradient-24"/><linearGradient id="linear-gradient-30" x1="15.07" y1="129.33" x2="72.24" y2="129.33" xlink:href="#linear-gradient-8"/><linearGradient id="linear-gradient-31" x1="13.82" y1="139.87" x2="17.33" y2="139.87" xlink:href="#linear-gradient-8"/><linearGradient id="linear-gradient-32" x1="69.99" y1="119.5" x2="73.5" y2="119.5" xlink:href="#linear-gradient-8"/><linearGradient id="linear-gradient-33" x1="70" y1="286.52" x2="62.56" y2="250.4" xlink:href="#linear-gradient-8"/><linearGradient id="linear-gradient-34" x1="72.19" y1="301.98" x2="63.74" y2="260.92" xlink:href="#linear-gradient-8"/><linearGradient id="linear-gradient-35" x1="68.41" y1="281.22" x2="61.42" y2="247.27" xlink:href="#linear-gradient-8"/><linearGradient id="linear-gradient-36" x1="102.87" y1="418.41" x2="86.73" y2="340.02" xlink:href="#linear-gradient-8"/></defs><title>Asset 2</title><g class="cls-1"><g id="Layer_2" data-name="Layer 2"><g id="OBJECTS"><path class="cls-2" d="M53,380.74S-30.69,9.78,320.72,0h35.85V380.74Z"/><ellipse class="cls-3" cx="169.86" cy="321.26" rx="169.86" ry="16.29"/><path class="cls-4" d="M302.75,295.79c-.7-8.69-4.95-17.9-5-18l.64-.29c.05.09,4.35,9.41,5.05,18.23Z"/><path class="cls-4" d="M305.23,294l-.71,0c1.39-24.31-4.12-31.23-4.17-31.29l.54-.46C301.13,262.5,306.64,269.35,305.23,294Z"/><path class="cls-4" d="M309.13,293.33c-2.46-18.63,0-31.88,0-32l.7.13c0,.13-2.44,13.28,0,31.78Z"/><path class="cls-4" d="M312.67,293.32c-2.83-23.36,2.44-26.46,2.67-26.58l.33.63-.17-.31.18.31c-.05,0-5.05,3.19-2.3,25.87Z"/><path class="cls-4" d="M318.34,293.3l-.71,0c.71-14.5,6.59-20.53,6.84-20.78l.5.5C324.91,273,319,279.1,318.34,293.3Z"/><polygon class="cls-5" points="327.22 291.51 295.68 291.51 302.42 318.8 320.49 318.8 327.22 291.51"/><path class="cls-5" d="M300.62,283s-2.48-8.15-8.86-11.69a21.51,21.51,0,0,1-8.86-9.92S280.77,281.23,300.62,283Z"/><path class="cls-5" d="M303.1,267.06s-2.13-13.12-7.44-17.72a32.48,32.48,0,0,1-7.8-10.28S287.86,258.2,303.1,267.06Z"/><path class="cls-5" d="M309.13,265.64c-.15.48-5.67-9.57-2.13-19.14s4.25-10.63,2.83-14.17C309.83,232.33,317.28,239.77,309.13,265.64Z"/><path class="cls-5" d="M313,270.6s16-11.34,15.24-27.64a60.24,60.24,0,0,1-7.09,8.15C316.21,256.07,313.38,258.91,313,270.6Z"/><path class="cls-5" d="M321.88,277s1.07-14.89,18.08-23c0,0-2.84,8.15-6,11.7S325.78,273.43,321.88,277Z"/><path class="cls-6" d="M312.54,110.84H257a1.51,1.51,0,0,0-1.51,1.51V137l-5.11,7.78,13.48-3.72h48.69a1.51,1.51,0,0,0,1.51-1.51V112.35A1.51,1.51,0,0,0,312.54,110.84Z"/><rect class="cls-7" x="281.98" y="115.95" width="26.96" height="3.25" transform="translate(590.91 235.16) rotate(180)"/><rect class="cls-7" x="264.31" y="122.46" width="44.63" height="3.25" transform="translate(573.25 248.17) rotate(180)"/><rect class="cls-7" x="270.35" y="128.97" width="38.58" height="3.25" transform="translate(579.29 261.19) rotate(180)"/><path class="cls-7" d="M187.53,83.43A10.57,10.57,0,1,0,198.1,94,10.57,10.57,0,0,0,187.53,83.43Zm0,19.35a8.63,8.63,0,0,1-2.61-.39,8.81,8.81,0,0,1-5.78-5.78,8.69,8.69,0,0,1-.4-2.61c0-.3,0-.6,0-.9a8.8,8.8,0,0,1,6.13-7.49,8.64,8.64,0,0,1,2.61-.4,8.79,8.79,0,0,1,0,17.57Z"/><path class="cls-7" d="M188.24,93.33V90.78c1.2.21,1.2,1,1.2,1.23h1.42a2.61,2.61,0,0,0-2.62-2.65v-1h-1.42v1a2.65,2.65,0,0,0,0,5.3v2.55c-1.2-.2-1.2-.95-1.2-1.22H184.2a2.62,2.62,0,0,0,2.62,2.65v1h1.42v-1a2.66,2.66,0,0,0,0-5.31ZM185.62,92c0-.27,0-1,1.2-1.23v2.46C185.62,93,185.62,92.28,185.62,92Zm2.62,5.2V94.76c1.2.21,1.2,1,1.2,1.23S189.44,97,188.24,97.21Z"/><path class="cls-7" d="M155.58,122.34a8.35,8.35,0,1,0,8.35,8.35A8.35,8.35,0,0,0,155.58,122.34Zm0,15.28a6.93,6.93,0,0,1-6.63-4.87,7.09,7.09,0,0,1-.31-2.06,5.53,5.53,0,0,1,0-.71,6.94,6.94,0,1,1,6.9,7.64Z"/><path class="cls-7" d="M156.14,130.16v-2c1,.16,1,.75,1,1h1.12a2.06,2.06,0,0,0-2.07-2.09v-.81H155V127a2.1,2.1,0,0,0,0,4.19v2c-1-.16-1-.75-1-1H153a2.07,2.07,0,0,0,2.07,2.09v.81h1.12v-.81a2.1,2.1,0,0,0,0-4.19Zm-2.07-1c0-.21,0-.8,1-1v1.93C154.07,129.92,154.07,129.33,154.07,129.11Zm2.07,4.11v-1.93c1,.16,1,.75,1,1S157.09,133.06,156.14,133.22Z"/><path class="cls-7" d="M191.61,155.1a6.36,6.36,0,1,0,6.36,6.36A6.36,6.36,0,0,0,191.61,155.1Zm0,11.65a5.48,5.48,0,0,1-1.57-.24,5.35,5.35,0,0,1-3.48-3.48,5.42,5.42,0,0,1-.23-1.57c0-.18,0-.36,0-.54a5.32,5.32,0,0,1,3.69-4.51,5.48,5.48,0,0,1,1.57-.24,5.29,5.29,0,0,1,0,10.58Z"/><path class="cls-7" d="M192,161.06v-1.54c.72.13.72.58.72.74h.85a1.57,1.57,0,0,0-1.57-1.59v-.62h-.85v.62a1.6,1.6,0,0,0,0,3.19v1.53c-.73-.12-.73-.57-.73-.73h-.85a1.57,1.57,0,0,0,1.58,1.59v.62H192v-.62a1.6,1.6,0,0,0,0-3.19Zm-1.58-.8c0-.16,0-.61.73-.74V161C190.46,160.88,190.46,160.43,190.46,160.26Zm1.58,3.13v-1.47c.72.12.72.57.72.74S192.76,163.27,192,163.39Z"/><path class="cls-8" d="M178.2,207.6l-4.08,1.11s-5.19,4.43-8.89,3.32-3.63-8.07.38-8.88c3.7-.74,6.29-1.11,6.29-1.11l3.34-1.48Z"/><path class="cls-9" d="M237.81,307.2s-6.66,8.15-7.4,11.11,4.07,3.34,8.51,0a48.45,48.45,0,0,1,7-4.44c1.11-.74,1.11-6.58,0-7.55S237.81,307.2,237.81,307.2Z"/><path class="cls-10" d="M224.35,308.83s2.36,6.15.87,6.89a17.92,17.92,0,0,1-6.66,1.11c-2.22,0-10.05,3.74-13,0-2.59-3.33,10.74-6.29,13-9.63S224.35,308.83,224.35,308.83Z"/><path class="cls-11" d="M214.12,213.89s-4.08,38.88-4.45,47.4,3.7,29.62,6.67,47c0,0,3.7,2.23,9.62,0,0,0-.37-27.77-1.11-34.8s1.48-14.44,3-19.63c2-6.85,10-25.55,10-25.55l-2.66-13.66Z"/><path class="cls-12" d="M228.93,216.85s2.22,21.11,3.7,35.92,3,53.69,3.33,54.43,7.78,3,11.11-2.22c0,0,1.48-28.51,1.85-35.92s4.82-42.58,0-59.24Z"/><path class="cls-13" d="M261.14,238H245.4v-7.32a3.8,3.8,0,0,1,3.8-3.79h8.15a3.79,3.79,0,0,1,3.79,3.79Zm-14.25-1.48h12.77v-5.84a2.32,2.32,0,0,0-2.31-2.31H249.2a2.31,2.31,0,0,0-2.31,2.31Z"/><path class="cls-14" d="M251.14,221.67s-3.33,7-1.48,9.26,6.67,1.11,7.78-.75-.74-8.51-.74-8.51Z"/><path class="cls-15" d="M247.44,202.78c1.48,5.93,6.3,8.52-.37,13s-21.11,4.82-28.88,1.49-6.67-7-4.82-11.11c1-2.17,1.25-6.65,1.26-10.36v-.1c0-3.21-.14-5.84-.14-5.84l-.14.16c-.46.53-2.09,2.39-4,4.36a49,49,0,0,1-4,3.63c-3,2.38-20.33,7.88-27,9.94l-2.61.8c-3.34-1.85-3-8.52-3-8.52l2.69-1.05c6.44-2.53,22.35-8.88,23.23-10.06,1.12-1.48,6.67-14.81,11.11-21.47a24.12,24.12,0,0,1,10.37-8.89l12.59-.74c8.55,0,13.39,2.41,15.7,4.06a9,9,0,0,1,1.7,1.49l-2.22,23.7s-.41,1.34-.85,3.33C247.33,193.9,246.51,199.07,247.44,202.78Z"/><path class="cls-16" d="M219.3,158.72s0-1.85,4.07-2.22-2.22,5.92-2.22,5.92Z"/><path class="cls-17" d="M215.23,145.39s-4.08-8.15-3.34-9.63a2.46,2.46,0,0,1,2.6-1.11s-1.86-3,.37-4.81,13-5.19,17.77,1.85-2.22,20.74-2.22,20.74l-1.48-6.3Z"/><path class="cls-18" d="M230,145.76s.37,8.15,1.85,11.85-3.33,7-6.67,8.15-5.18,0-4.07-5.56a15.53,15.53,0,0,0-1.48-10Z"/><path class="cls-19" d="M214.67,137.8s-.74,18.14,4.81,18.51,9.26-4.44,10.74-9.25c0,0,2.41-.56,2-4.26s-3,1.48-3,1.48-1.85-1.85-1.48-7c0,0-1.49-1.48-4.45.37A7.82,7.82,0,0,1,214.67,137.8Z"/><path class="cls-20" d="M234.85,158.35s-1.48-3-2.59-3.33-6.67,5.55-7,6.29-.37,6.3-.37,6.3S233,163.53,234.85,158.35Z"/><path class="cls-21" d="M223,167.61s-.37-5.19-1.11-6.3a15.92,15.92,0,0,0-2.59-2.59A7.69,7.69,0,0,0,223,167.61Z"/><path class="cls-22" d="M258.4,218.41c-.35,2-.59,3.26-.59,3.26-4.81,2.22-7.41,0-7.41,0s0-1.37.08-3.44c.13-5.38.4-15.46.66-18.41.17-1.87-1.22-5.23-3.07-9.26-2.17-4.72-4.95-10.35-6.55-15.55-2.78-9,2.92-14.48,7.92-13h0a5.64,5.64,0,0,1,1,.38c5.19,2.59,10,24.44,10.74,31.11C261.7,198.58,259.5,212.15,258.4,218.41Z"/><path class="cls-23" d="M258.4,218.41c-.35,2-.59,3.26-.59,3.26-4.81,2.22-7.41,0-7.41,0s0-1.37.08-3.44A31.72,31.72,0,0,0,258.4,218.41Z"/><path class="cls-24" d="M179.33,207.91l-2.61.8c-3.34-1.85-3-8.52-3-8.52l2.69-1.05C176.64,201.25,177.27,205.07,179.33,207.91Z"/><rect class="cls-25" x="230.22" y="233.33" width="47.03" height="32.59" rx="3.98"/><path class="cls-26" d="M214.49,172.42a173.47,173.47,0,0,0-.14,17.56c-.46.53-2.09,2.39-4,4.36A77.14,77.14,0,0,1,214.49,172.42Z"/><path class="cls-27" d="M214.64,195.75h0v-.1A.31.31,0,0,0,214.64,195.75Z"/><path class="cls-28" d="M114,308.65s-1.68,5.22-1.68,6.7,3.7,3.33,5.92,4.07,10,4.45,13.33,3,1.85-3-2.22-5.19-6.66-5.92-6.66-7a4.71,4.71,0,0,0-.75-2.23S115.66,304.54,114,308.65Z"/><path class="cls-29" d="M135.15,305.73s-1.76,5.18-2.13,6.66,0,2.59,8.15,3.7,13,.37,14.81-1.11-2.22-2.59-6.66-3.7a14.88,14.88,0,0,1-7-3.71c-.37-.37-.28-1.36-.28-1.36S139.87,303.52,135.15,305.73Z"/><path class="cls-30" d="M136,216.48s11.47,32.59,12.21,40-4.44,49.24-4.44,49.24-3.7,1.85-11.11-.74c0,0,1.85-40.36,1.11-43.69s-7.4-13-7.4-13v-33.7Z"/><path class="cls-31" d="M129,220.56l-2.59,51.84c-.37,7.4-2.59,35.54-2.59,35.54s-5.93,2.6-11.85,0c0,0,.74-36.28.74-39.62s-2.59-22.58-3-28.14-5.19-14.07-3.34-27.4Z"/><path class="cls-32" d="M153.28,211.36l3.44.68a10.67,10.67,0,0,0,9.26-.37c4.81-2.59,3.7-8.52-.74-7.78a75.33,75.33,0,0,0-8.15,1.86l-3.33-.74S150.2,208.83,153.28,211.36Z"/><path class="cls-33" d="M163,164.27l2.22-1.85s1.48-8.51,2.59-8.88,1.11,3.7,1.11,3.7a18.31,18.31,0,0,0,3.33-5.56c.74-2.59,3-3.7,4.45,0s-.74,12.59-7,15.19l-3,3Z"/><path class="cls-34" d="M126.49,160.63s3.94,1.79,9.13,8.83,6.29,9.26,7.4,9.26,11.85-7.78,19.26-15.56c0,0,4.07,1.48,5.18,7.78,0,0-20.37,19.62-24.44,19.62s-13.33-7.4-13.33-7.4Z"/><path class="cls-35" d="M122.66,158.72s9.62,2.22,11.47,16.29,1.49,25.55,2.23,31.85,3.33,10-4.45,13.33a26.06,26.06,0,0,1-24.44-2.59c-6.66-4.82-.37-6.67-1.85-17S98.59,153.17,122.66,158.72Z"/><path class="cls-36" d="M128.59,140.39a12.15,12.15,0,0,0,7-8l-3,1.85a8.57,8.57,0,0,0,1.85-4.81s-2.59,3.7-11.47,1.11-11.85,4.07-11.48,6.66c0,0-2.23,1.11-1.85,5.19s6.66,13,6.29,12.59S128.59,140.39,128.59,140.39Z"/><path class="cls-37" d="M115.62,148.35s.37,7-1.85,10.37c0,0,5.18,8.89,9.26,7.78s-.75-5.56.37-9.63S115.62,148.35,115.62,148.35Z"/><path class="cls-38" d="M129.69,139.84s0,17.77-4.07,18.14-9.26-3.7-10-9.26c0,0-2.22-2.22-.74-4.44s2.22,2.22,2.22,2.22a7.64,7.64,0,0,0,1.85-7.41s.37-.37,4.08.75S127.84,141,129.69,139.84Z"/><path class="cls-39" d="M110.38,184.83s-1.06,15.36,4.13,22S136.87,210,136.87,210Z"/><path class="cls-40" d="M152.65,212.78s1.85-3,1.48-8.89c0,0-28.14-5.92-30-8.51s-2.23-11.48-3.34-16.29-3-11.85-7.77-10.74-3,16.29-1.48,24.44,4.81,10.73,5.92,11.48S137.47,211.3,152.65,212.78Z"/><path class="cls-4" d="M75.14,295.79c.69-8.69,4.94-17.9,5-18l-.64-.29c0,.09-4.34,9.41-5,18.23Z"/><path class="cls-4" d="M72.66,294l.71,0c-1.39-24.31,4.11-31.23,4.17-31.29l-.55-.46C76.76,262.5,71.25,269.35,72.66,294Z"/><path class="cls-4" d="M68.76,293.33c2.46-18.63,0-31.88,0-32l-.69.13c0,.13,2.44,13.28,0,31.78Z"/><path class="cls-4" d="M65.21,293.32C68,270,62.77,266.86,62.55,266.74l-.34.63.17-.31-.17.31s5.05,3.19,2.3,25.87Z"/><path class="cls-4" d="M59.55,293.3l.7,0c-.7-14.5-6.58-20.53-6.83-20.78l-.5.5C53,273,58.85,279.1,59.55,293.3Z"/><polygon class="cls-5" points="52.84 291.51 84.38 291.51 77.64 318.8 59.57 318.8 52.84 291.51"/><path class="cls-5" d="M77.26,283s2.48-8.15,8.86-11.69A21.51,21.51,0,0,0,95,261.39S97.11,281.23,77.26,283Z"/><path class="cls-5" d="M74.78,267.06s2.13-13.12,7.45-17.72A32.54,32.54,0,0,0,90,239.06S90,258.2,74.78,267.06Z"/><path class="cls-5" d="M68.76,265.64c.15.48,5.67-9.57,2.13-19.14s-4.26-10.63-2.84-14.17C68.05,232.33,60.61,239.77,68.76,265.64Z"/><path class="cls-5" d="M64.86,270.6s-16-11.34-15.24-27.64a61.2,61.2,0,0,0,7.09,8.15C61.67,256.07,64.51,258.91,64.86,270.6Z"/><path class="cls-5" d="M56,277s-1.06-14.89-18.07-23c0,0,2.83,8.15,6,11.7S52.1,273.43,56,277Z"/><rect class="cls-6" x="4.69" y="102.65" width="76.53" height="49.5" rx="1.93"/><path class="cls-41" d="M32.07,146.71c-2.71,0-4.48-3.85-6.2-7.58-1.38-3-2.81-6.11-4.33-6.11-3.43,0-5.44,6.24-5.46,6.3l-1-.31c.09-.29,2.27-7,6.47-7,2.19,0,3.69,3.26,5.29,6.72,1.5,3.27,3.2,7,5.24,7s4.69-9.91,6.63-17.15c2.53-9.45,4.06-14.8,6-14.8s3.92,3,5.89,6.22c1.66,2.68,3.53,5.72,5,5.72s3.22-3.49,4.79-6.56c1.88-3.67,3.66-7.13,5.74-7.13,3.84,0,6,6.4,6.11,6.68l-1,.33c0-.06-2-6-5.12-6-1.44,0-3.22,3.48-4.8,6.56-1.88,3.67-3.66,7.13-5.73,7.13s-3.92-3-5.89-6.22c-1.66-2.68-3.54-5.72-5-5.72-.07,0-.76.12-2.12,4.07-.91,2.65-1.87,6.2-2.87,10C36.73,139.94,34.72,146.71,32.07,146.71Z"/><path class="cls-42" d="M17.33,139.87a1.76,1.76,0,1,1-1.76-1.76A1.75,1.75,0,0,1,17.33,139.87Z"/><path class="cls-43" d="M73.5,119.5a1.76,1.76,0,1,1-1.75-1.75A1.76,1.76,0,0,1,73.5,119.5Z"/><rect class="cls-6" x="33.33" y="169.31" width="59.75" height="38.64" rx="1.51"/><rect class="cls-44" x="46.44" y="186.71" width="6.24" height="1.13" rx="0.4"/><rect class="cls-45" x="48.02" y="191.52" width="3.09" height="1.13" rx="0.28"/><rect class="cls-46" x="44.97" y="189.11" width="9.19" height="1.13" rx="0.4"/><path class="cls-7" d="M51.84,196.05a7,7,0,1,1-2.11-13.64q.35,0,.69,0l.94-3.94a10.87,10.87,0,0,0-1.63-.12,11,11,0,1,0,4.06,21.24Z"/><path class="cls-47" d="M60.74,189.39a11,11,0,0,1-7,10.23l-1.95-3.57a7,7,0,0,0-1.42-13.61l.94-3.94A11,11,0,0,1,60.74,189.39Z"/><rect class="cls-7" x="64.74" y="178.46" width="21.59" height="4.24"/><rect class="cls-7" x="64.74" y="186.94" width="21.59" height="4.24"/><rect class="cls-7" x="64.74" y="195.42" width="21.59" height="4.24"/></g></g></g></svg>